<?xml version="1.0" encoding="utf-8" ?>
<svg xmlns="http://www.w3.org/2000/svg" xmlns:ev="http://www.w3.org/2001/xml-events" xmlns:xlink="http://www.w3.org/1999/xlink" baseProfile="full" height="20" version="1.1" width="100%">
  <defs>
    <mask id="bar_mask">
      <rect fill="white" height="20" rx="10.0" ry="10.0" width="100%" x="0" y="0"/>
    </mask>
  </defs>
  <g mask="url(#bar_mask)">
    <rect fill="#dea584" height="20" width="68.5%" x="0%" y="0">
      <title>Rust 68.5%</title>
    </rect>
    <rect fill="#f1e05a" height="20" width="6.4%" x="68.5%" y="0">
      <title>JavaScript 6.4%</title>
    </rect>
    <rect fill="#ba595e" height="20" width="5.5%" x="74.9%" y="0">
      <title>D 5.5%</title>
    </rect>
    <rect fill="#89e051" height="20" width="3.3%" x="80.4%" y="0">
      <title>Shell 3.3%</title>
    </rect>
    <rect fill="#00B4AB" height="20" width="3.0%" x="83.7%" y="0">
      <title>Dart 3.0%</title>
    </rect>
    <rect fill="#3572A5" height="20" width="2.8%" x="86.7%" y="0">
      <title>Python 2.8%</title>
    </rect>
    <rect fill="#b07219" height="20" width="2.7%" x="89.5%" y="0">
      <title>Java 2.7%</title>
    </rect>
    <rect fill="#02f88c" height="20" width="1.3%" x="92.2%" y="0">
      <title>Ada 1.3%</title>
    </rect>
    <rect fill="#5e5086" height="20" width="1.1%" x="93.5%" y="0">
      <title>Haskell 1.1%</title>
    </rect>
    <rect fill="#e34c26" height="20" width="1.0%" x="94.6%" y="0">
      <title>HTML 1.0%</title>
    </rect>
    <rect fill="#563d7c" height="20" width="1.0%" x="95.6%" y="0">
      <title>CSS 1.0%</title>
    </rect>
    <rect fill="#e38c00" height="20" width="0.7%" x="96.6%" y="0">
      <title>SQL 0.7%</title>
    </rect>
    <rect fill="#3178c6" height="20" width="0.6%" x="97.3%" y="0">
      <title>TypeScript 0.6%</title>
    </rect>
    <rect fill="gray" height="20" width="2.1000000000000085%" x="97.89999999999999%" y="0">
      <title>Other 2.1000000000000085%</title>
    </rect>
  </g>
</svg>
