<?xml version="1.0" encoding="utf-8" ?>
<svg xmlns="http://www.w3.org/2000/svg" xmlns:ev="http://www.w3.org/2001/xml-events" xmlns:xlink="http://www.w3.org/1999/xlink" baseProfile="full" height="20" version="1.1" width="100%">
  <defs>
    <mask id="bar_mask">
      <rect fill="white" height="20" rx="10.0" ry="10.0" width="100%" x="0" y="0"/>
    </mask>
  </defs>
  <g mask="url(#bar_mask)">
    <rect fill="#dea584" height="20" width="56.8%" x="0%" y="0">
      <title>Rust 56.8%</title>
    </rect>
    <rect fill="#b07219" height="20" width="9.4%" x="56.8%" y="0">
      <title>Java 9.4%</title>
    </rect>
    <rect fill="#00ADD8" height="20" width="6.9%" x="66.2%" y="0">
      <title>Go 6.9%</title>
    </rect>
    <rect fill="#ba595e" height="20" width="5.0%" x="73.10000000000001%" y="0">
      <title>D 5.0%</title>
    </rect>
    <rect fill="#3572A5" height="20" width="4.4%" x="78.10000000000001%" y="0">
      <title>Python 4.4%</title>
    </rect>
    <rect fill="#f1e05a" height="20" width="3.8%" x="82.50000000000001%" y="0">
      <title>JavaScript 3.8%</title>
    </rect>
    <rect fill="#555555" height="20" width="2.1%" x="86.30000000000001%" y="0">
      <title>C 2.1%</title>
    </rect>
    <rect fill="#00B4AB" height="20" width="1.8%" x="88.4%" y="0">
      <title>Dart 1.8%</title>
    </rect>
    <rect fill="#f34b7d" height="20" width="1.6%" x="90.2%" y="0">
      <title>C++ 1.6%</title>
    </rect>
    <rect fill="#89e051" height="20" width="1.5%" x="91.8%" y="0">
      <title>Shell 1.5%</title>
    </rect>
    <rect fill="#ec915c" height="20" width="0.9%" x="93.3%" y="0">
      <title>Zig 0.9%</title>
    </rect>
    <rect fill="#02f88c" height="20" width="0.8%" x="94.2%" y="0">
      <title>Ada 0.8%</title>
    </rect>
    <rect fill="gray" height="20" width="5.0%" x="95.0%" y="0">
      <title>Other 5.0%</title>
    </rect>
  </g>
</svg>
